<svg width="17" height="14" viewBox="0 0 17 14" fill="none" xmlns="http://www.w3.org/2000/svg">
<path d="M5.4189 13.0926C5.54538 13.2691 5.71212 13.4129 5.90528 13.5122C6.09845 13.6114 6.31248 13.6632 6.52965 13.6632C6.74681 13.6632 6.96085 13.6114 7.15401 13.5122C7.34718 13.4129 7.51391 13.2691 7.64039 13.0926L16.6896 0.545704C16.8529 0.317969 16.6896 0 16.4103 0H14.3951C13.9568 0 13.54 0.210546 13.2822 0.571484L6.53179 9.93867L3.47242 5.69336C3.21461 5.33672 2.80211 5.12188 2.35953 5.12188H0.344294C0.0649974 5.12188 -0.0982839 5.43984 0.0649973 5.66758L5.4189 13.0926Z" fill="black"/>
</svg>
