<svg width="30" height="30" viewBox="0 0 30 30" fill="none" xmlns="http://www.w3.org/2000/svg">
<path d="M27.6485 6.60935L11.868 22.3899L5.60885 23.4876C5.55178 23.496 5.50472 23.5 5.46375 23.5C5.26812 23.5 5.08045 23.4252 4.92116 23.2716C4.83467 23.1854 4.7703 23.0796 4.73357 22.9632C4.69659 22.846 4.68874 22.7215 4.71071 22.6006L4.71123 22.5976L5.81015 16.332L21.5925 0.549632L27.6485 6.60935ZM27.7381 6.69892C27.7379 6.69876 27.7377 6.69861 27.7376 6.69845L27.7381 6.69892ZM1.2 27.65H28.8C29.1876 27.65 29.5 27.9624 29.5 28.35V29.5H0.5V28.35C0.5 27.9624 0.812392 27.65 1.2 27.65Z" fill="#8799FF" stroke="black"/>
</svg>
