<svg width="30" height="30" viewBox="0 0 30 30" fill="none" xmlns="http://www.w3.org/2000/svg">
<path d="M23.25 5.4V5.9H23.75H28.75C29.1847 5.9 29.5 6.23143 29.5 6.6V7.6H27.3281H26.8521L26.8287 8.07543L25.8639 27.6879L25.8639 27.6882C25.8152 28.6867 24.9545 29.5 23.8672 29.5H6.13281C5.04951 29.5 4.18475 28.683 4.13612 27.6881L4.13612 27.6879L3.17127 8.07543L3.14788 7.6H2.67187H0.5V6.6C0.5 6.23143 0.815303 5.9 1.25 5.9H6.25H6.75V5.4V2.4C6.75 1.37143 7.6278 0.5 8.75 0.5H21.25C22.3722 0.5 23.25 1.37143 23.25 2.4V5.4ZM20.9375 5.9H21.4375V5.4V2.7V2.2H20.9375H9.0625H8.5625V2.7V5.4V5.9H9.0625H20.9375Z" fill="#8799FF" stroke="black"/>
</svg>
