<svg width="45" height="50" viewBox="0 0 45 50" fill="none" xmlns="http://www.w3.org/2000/svg">
<path d="M43.125 8.85938H35.625V3.9375C35.625 1.76572 33.9434 0 31.875 0H13.125C11.0566 0 9.375 1.76572 9.375 3.9375V8.85938H1.875C0.837891 8.85938 0 9.73916 0 10.8281V12.7969C0 13.0676 0.210938 13.2891 0.46875 13.2891H4.00781L5.45508 45.4658C5.54883 47.5638 7.20117 49.2188 9.19922 49.2188H35.8008C37.8047 49.2188 39.4512 47.5699 39.5449 45.4658L40.9922 13.2891H44.5312C44.7891 13.2891 45 13.0676 45 12.7969V10.8281C45 9.73916 44.1621 8.85938 43.125 8.85938ZM31.4062 8.85938H13.5938V4.42969H31.4062V8.85938Z" fill="black"/>
</svg>
